<svg width="83" height="29" viewBox="0 0 83 29" fill="none" xmlns="http://www.w3.org/2000/svg">
<path d="M10.08 0V0.639999C9.35467 0.661332 8.8 0.746666 8.416 0.896C8.05333 1.024 7.808 1.28 7.68 1.664C7.552 2.02667 7.488 2.60266 7.488 3.392V19.648C7.488 20.3093 7.53067 20.8 7.616 21.12C7.72267 21.44 7.91467 21.6533 8.192 21.76C8.49067 21.8667 8.928 21.92 9.504 21.92H11.072C11.7973 21.92 12.48 21.7493 13.12 21.408C13.76 21.0667 14.336 20.5867 14.848 19.968C15.36 19.328 15.7867 18.5707 16.128 17.696C16.4693 16.8213 16.7253 15.8507 16.896 14.784H17.632C17.568 15.5093 17.536 16.448 17.536 17.6C17.536 18.0907 17.5467 18.8053 17.568 19.744C17.5893 20.6827 17.6533 21.6533 17.76 22.656C16.672 22.6133 15.4453 22.592 14.08 22.592C12.7147 22.5707 11.4987 22.56 10.432 22.56C9.89867 22.56 9.216 22.56 8.384 22.56C7.552 22.56 6.656 22.5707 5.696 22.592C4.736 22.592 3.76533 22.6027 2.784 22.624C1.80267 22.624 0.874667 22.6347 0 22.656V22.016C0.682667 21.9733 1.19467 21.888 1.536 21.76C1.87733 21.632 2.10133 21.376 2.208 20.992C2.336 20.608 2.4 20.032 2.4 19.264V3.392C2.4 2.60266 2.336 2.02667 2.208 1.664C2.10133 1.28 1.86667 1.024 1.504 0.896C1.16267 0.746666 0.661333 0.661332 0 0.639999V0C0.533333 0.0213331 1.248 0.0426661 2.144 0.0639992C3.06133 0.0853322 4.032 0.0959988 5.056 0.0959988C5.99467 0.0959988 6.912 0.0853322 7.808 0.0639992C8.72533 0.0426661 9.48267 0.0213331 10.08 0Z" fill="#222222"/>
<path d="M23.6585 22.88C22.6985 22.88 21.8985 22.6987 21.2585 22.336C20.6185 21.9733 20.1492 21.4933 19.8505 20.896C19.5518 20.2773 19.4025 19.6053 19.4025 18.88C19.4025 17.9627 19.6052 17.216 20.0105 16.64C20.4372 16.064 20.9812 15.5947 21.6425 15.232C22.3038 14.8693 22.9972 14.5707 23.7225 14.336C24.4692 14.1013 25.1732 13.8773 25.8345 13.664C26.5172 13.4293 27.0612 13.1627 27.4665 12.864C27.8932 12.544 28.1065 12.1387 28.1065 11.648V9.152C28.1065 8.59733 28.0105 8.10667 27.8185 7.68C27.6478 7.232 27.3705 6.89067 26.9865 6.656C26.6238 6.42133 26.1438 6.304 25.5465 6.304C25.1198 6.304 24.6932 6.368 24.2665 6.496C23.8398 6.60267 23.4878 6.79467 23.2105 7.072C23.8078 7.28533 24.2665 7.616 24.5865 8.064C24.9278 8.49067 25.0985 8.98133 25.0985 9.536C25.0985 10.2613 24.8425 10.8373 24.3305 11.264C23.8398 11.6907 23.2532 11.904 22.5705 11.904C21.8025 11.904 21.2158 11.6693 20.8105 11.2C20.4265 10.7093 20.2345 10.1227 20.2345 9.44C20.2345 8.82133 20.3838 8.30933 20.6825 7.904C21.0025 7.49867 21.4398 7.11467 21.9945 6.752C22.5918 6.41067 23.3065 6.144 24.1385 5.952C24.9918 5.76 25.9092 5.664 26.8905 5.664C27.8718 5.664 28.7572 5.77067 29.5465 5.984C30.3358 6.176 30.9972 6.53867 31.5305 7.072C32.0212 7.56267 32.3412 8.17067 32.4905 8.896C32.6398 9.6 32.7145 10.496 32.7145 11.584V20.288C32.7145 20.8213 32.7678 21.1947 32.8745 21.408C32.9812 21.6 33.1625 21.696 33.4185 21.696C33.6105 21.696 33.7918 21.6427 33.9625 21.536C34.1545 21.4293 34.3572 21.3013 34.5705 21.152L34.8905 21.696C34.4425 22.08 33.9198 22.3787 33.3225 22.592C32.7465 22.784 32.0958 22.88 31.3705 22.88C30.5812 22.88 29.9518 22.7733 29.4825 22.56C29.0132 22.3253 28.6718 22.016 28.4585 21.632C28.2665 21.248 28.1705 20.8 28.1705 20.288C27.6585 21.0987 27.0398 21.7387 26.3145 22.208C25.5892 22.656 24.7038 22.88 23.6585 22.88ZM25.9305 20.832C26.3572 20.832 26.7412 20.736 27.0825 20.544C27.4452 20.3307 27.7865 19.9893 28.1065 19.52V12.96C27.9145 13.28 27.6478 13.568 27.3065 13.824C26.9652 14.08 26.6025 14.3467 26.2185 14.624C25.8345 14.88 25.4612 15.168 25.0985 15.488C24.7572 15.808 24.4798 16.2027 24.2665 16.672C24.0532 17.1413 23.9465 17.7067 23.9465 18.368C23.9465 19.2 24.1278 19.8187 24.4905 20.224C24.8532 20.6293 25.3332 20.832 25.9305 20.832Z" fill="#222222"/>
<path d="M46.813 5.664C47.4957 5.664 48.0503 5.81333 48.477 6.112C48.9037 6.38933 49.213 6.752 49.405 7.2C49.6183 7.648 49.725 8.11733 49.725 8.608C49.725 9.39733 49.4903 10.048 49.021 10.56C48.573 11.0507 47.9757 11.296 47.229 11.296C46.4823 11.296 45.8957 11.1147 45.469 10.752C45.0637 10.368 44.861 9.86667 44.861 9.248C44.861 8.65067 44.989 8.16 45.245 7.776C45.5223 7.37067 45.8637 7.02933 46.269 6.752C45.9703 6.66667 45.6717 6.67733 45.373 6.784C44.9677 6.848 44.5837 7.01867 44.221 7.296C43.8583 7.552 43.549 7.88267 43.293 8.288C43.037 8.672 42.8343 9.09867 42.685 9.568C42.5357 10.016 42.461 10.4533 42.461 10.88V19.36C42.461 20.384 42.7063 21.0773 43.197 21.44C43.709 21.8027 44.4663 21.984 45.469 21.984V22.656C44.9783 22.6347 44.2637 22.6133 43.325 22.592C42.3863 22.5493 41.405 22.528 40.381 22.528C39.5277 22.528 38.6637 22.5493 37.789 22.592C36.9143 22.6133 36.253 22.6347 35.805 22.656V21.984C36.5517 21.984 37.0743 21.824 37.373 21.504C37.693 21.184 37.853 20.576 37.853 19.68V9.6C37.853 8.64 37.7037 7.936 37.405 7.488C37.1277 7.01867 36.5943 6.784 35.805 6.784V6.112C36.4877 6.176 37.149 6.208 37.789 6.208C38.685 6.208 39.517 6.176 40.285 6.112C41.0743 6.02667 41.7997 5.90933 42.461 5.76V8.736C42.717 8.16 43.0583 7.63733 43.485 7.168C43.9117 6.69867 44.4023 6.336 44.957 6.08C45.5117 5.80267 46.1303 5.664 46.813 5.664Z" fill="#222222"/>
<path d="M56.9505 28.672C55.6278 28.672 54.4438 28.5547 53.3985 28.32C52.3745 28.1067 51.5638 27.7653 50.9665 27.296C50.3905 26.848 50.1025 26.2933 50.1025 25.632C50.1025 24.9707 50.4012 24.3733 50.9985 23.84C51.5958 23.328 52.4812 22.9227 53.6545 22.624L53.9425 23.136C53.5372 23.456 53.2385 23.7973 53.0465 24.16C52.8758 24.544 52.7905 24.9387 52.7905 25.344C52.7905 26.24 53.1958 26.9227 54.0065 27.392C54.8385 27.8827 55.9585 28.128 57.3665 28.128C58.3265 28.128 59.1798 28 59.9265 27.744C60.6945 27.488 61.2918 27.104 61.7185 26.592C62.1665 26.08 62.3905 25.4507 62.3905 24.704C62.3905 24.064 62.1558 23.52 61.6865 23.072C61.2172 22.6453 60.2785 22.432 58.8705 22.432H56.8865C56.0118 22.432 55.2438 22.336 54.5825 22.144C53.9425 21.952 53.4412 21.6533 53.0785 21.248C52.7158 20.8213 52.5345 20.288 52.5345 19.648C52.5345 18.752 52.8865 17.9627 53.5905 17.28C54.2945 16.5973 55.3398 15.9573 56.7265 15.36L57.0465 15.616C56.6412 15.872 56.2572 16.1493 55.8945 16.448C55.5532 16.7253 55.3825 17.088 55.3825 17.536C55.3825 18.2187 55.8092 18.56 56.6625 18.56H60.1505C61.3238 18.56 62.3692 18.6987 63.2865 18.976C64.2252 19.2533 64.9612 19.712 65.4945 20.352C66.0492 20.9707 66.3265 21.7813 66.3265 22.784C66.3265 23.8293 65.9852 24.8 65.3025 25.696C64.6412 26.592 63.6172 27.3067 62.2305 27.84C60.8438 28.3947 59.0838 28.672 56.9505 28.672ZM57.2705 15.84C56.0545 15.84 54.9665 15.6587 54.0065 15.296C53.0465 14.9333 52.2892 14.3787 51.7345 13.632C51.1798 12.8853 50.9025 11.9253 50.9025 10.752C50.9025 9.57867 51.1798 8.61867 51.7345 7.872C52.2892 7.104 53.0465 6.54933 54.0065 6.208C54.9665 5.84533 56.0545 5.664 57.2705 5.664C58.4865 5.664 59.5745 5.84533 60.5345 6.208C61.4945 6.54933 62.2518 7.104 62.8065 7.872C63.3612 8.61867 63.6385 9.57867 63.6385 10.752C63.6385 11.9253 63.3612 12.8853 62.8065 13.632C62.2518 14.3787 61.4945 14.9333 60.5345 15.296C59.5745 15.6587 58.4865 15.84 57.2705 15.84ZM57.2705 15.264C57.8465 15.264 58.2945 14.944 58.6145 14.304C58.9345 13.6427 59.0945 12.4587 59.0945 10.752C59.0945 9.04533 58.9345 7.872 58.6145 7.232C58.2945 6.57067 57.8465 6.24 57.2705 6.24C56.7158 6.24 56.2678 6.57067 55.9265 7.232C55.6065 7.872 55.4465 9.04533 55.4465 10.752C55.4465 12.4587 55.6065 13.6427 55.9265 14.304C56.2678 14.944 56.7158 15.264 57.2705 15.264ZM62.2625 8.416L61.6225 8.192C61.9425 7.36 62.4545 6.66667 63.1585 6.112C63.8838 5.55733 64.6625 5.28 65.4945 5.28C66.1772 5.28 66.6892 5.472 67.0305 5.856C67.3932 6.21867 67.5745 6.69867 67.5745 7.296C67.5745 7.936 67.4038 8.416 67.0625 8.736C66.7212 9.03467 66.3372 9.184 65.9105 9.184C65.5478 9.184 65.2065 9.056 64.8865 8.8C64.5878 8.544 64.4172 8.16 64.3745 7.648C64.3318 7.11467 64.5132 6.432 64.9185 5.6L65.1425 5.792C64.3318 6.09067 63.7238 6.44267 63.3185 6.848C62.9132 7.232 62.5612 7.75467 62.2625 8.416Z" fill="#222222"/>
<path d="M76.186 5.664C78.0633 5.664 79.5353 6.21867 80.602 7.328C81.6687 8.43733 82.202 10.2507 82.202 12.768H71.674L71.61 12.16H78.17C78.1913 11.1147 78.1273 10.1547 77.978 9.28C77.8287 8.384 77.594 7.66933 77.274 7.136C76.954 6.60267 76.5273 6.336 75.994 6.336C75.2473 6.336 74.6073 6.80533 74.074 7.744C73.562 8.68267 73.2527 10.24 73.146 12.416L73.242 12.608C73.2207 12.864 73.1993 13.1307 73.178 13.408C73.178 13.6853 73.178 13.9733 73.178 14.272C73.178 15.744 73.3807 16.9387 73.786 17.856C74.2127 18.7733 74.746 19.4453 75.386 19.872C76.026 20.2773 76.6767 20.48 77.338 20.48C77.786 20.48 78.2447 20.416 78.714 20.288C79.2047 20.1387 79.6953 19.8827 80.186 19.52C80.6767 19.136 81.1353 18.6027 81.562 17.92L82.138 18.112C81.882 18.9227 81.4767 19.712 80.922 20.48C80.3673 21.248 79.6633 21.8773 78.81 22.368C77.9567 22.8587 76.9327 23.104 75.738 23.104C74.2873 23.104 73.0073 22.7947 71.898 22.176C70.7887 21.5573 69.914 20.6187 69.274 19.36C68.6553 18.1013 68.346 16.5013 68.346 14.56C68.346 12.576 68.6767 10.9227 69.338 9.6C70.0207 8.27733 70.9487 7.296 72.122 6.656C73.3167 5.99467 74.6713 5.664 76.186 5.664Z" fill="#222222"/>
</svg>
