<svg width="40" height="40" viewBox="0 0 40 40" fill="none" xmlns="http://www.w3.org/2000/svg">
<rect width="40" height="40" fill="#292929"/>
<path d="M22.96 5.68V6.48C22.0533 6.50667 21.36 6.61333 20.88 6.8C20.4267 6.96 20.12 7.28 19.96 7.76C19.8 8.21333 19.72 8.93333 19.72 9.92V30.24C19.72 31.0667 19.7733 31.68 19.88 32.08C20.0133 32.48 20.2533 32.7467 20.6 32.88C20.9733 33.0133 21.52 33.08 22.24 33.08H24.2C25.1067 33.08 25.96 32.8667 26.76 32.44C27.56 32.0133 28.28 31.4133 28.92 30.64C29.56 29.84 30.0933 28.8933 30.52 27.8C30.9467 26.7067 31.2667 25.4933 31.48 24.16H32.4C32.32 25.0667 32.28 26.24 32.28 27.68C32.28 28.2933 32.2933 29.1867 32.32 30.36C32.3467 31.5333 32.4267 32.7467 32.56 34C31.2 33.9467 29.6667 33.92 27.96 33.92C26.2533 33.8933 24.7333 33.88 23.4 33.88C22.7333 33.88 21.88 33.88 20.84 33.88C19.8 33.88 18.68 33.8933 17.48 33.92C16.28 33.92 15.0667 33.9333 13.84 33.96C12.6133 33.96 11.4533 33.9733 10.36 34V33.2C11.2133 33.1467 11.8533 33.04 12.28 32.88C12.7067 32.72 12.9867 32.4 13.12 31.92C13.28 31.44 13.36 30.72 13.36 29.76V9.92C13.36 8.93333 13.28 8.21333 13.12 7.76C12.9867 7.28 12.6933 6.96 12.24 6.8C11.8133 6.61333 11.1867 6.50667 10.36 6.48V5.68C11.0267 5.70667 11.92 5.73333 13.04 5.76C14.1867 5.78667 15.4 5.8 16.68 5.8C17.8533 5.8 19 5.78667 20.12 5.76C21.2667 5.73333 22.2133 5.70667 22.96 5.68Z" fill="white"/>
</svg>
