<svg width="23" height="29" viewBox="0 0 23 29" fill="none" xmlns="http://www.w3.org/2000/svg">
<path d="M12.96 0.68V1.48C12.0533 1.50667 11.36 1.61333 10.88 1.8C10.4267 1.96 10.12 2.28 9.96 2.76C9.8 3.21333 9.72 3.93333 9.72 4.92V25.24C9.72 26.0667 9.77333 26.68 9.88 27.08C10.0133 27.48 10.2533 27.7467 10.6 27.88C10.9733 28.0133 11.52 28.08 12.24 28.08H14.2C15.1067 28.08 15.96 27.8667 16.76 27.44C17.56 27.0133 18.28 26.4133 18.92 25.64C19.56 24.84 20.0933 23.8933 20.52 22.8C20.9467 21.7067 21.2667 20.4933 21.48 19.16H22.4C22.32 20.0667 22.28 21.24 22.28 22.68C22.28 23.2933 22.2933 24.1867 22.32 25.36C22.3467 26.5333 22.4267 27.7467 22.56 29C21.2 28.9467 19.6667 28.92 17.96 28.92C16.2533 28.8933 14.7333 28.88 13.4 28.88C12.7333 28.88 11.88 28.88 10.84 28.88C9.8 28.88 8.68 28.8933 7.48 28.92C6.28 28.92 5.06667 28.9333 3.84 28.96C2.61333 28.96 1.45333 28.9733 0.36 29V28.2C1.21333 28.1467 1.85333 28.04 2.28 27.88C2.70667 27.72 2.98667 27.4 3.12 26.92C3.28 26.44 3.36 25.72 3.36 24.76V4.92C3.36 3.93333 3.28 3.21333 3.12 2.76C2.98667 2.28 2.69333 1.96 2.24 1.8C1.81333 1.61333 1.18667 1.50667 0.36 1.48V0.68C1.02667 0.706666 1.92 0.733332 3.04 0.759999C4.18667 0.786665 5.4 0.799998 6.68 0.799998C7.85333 0.799998 9 0.786665 10.12 0.759999C11.2667 0.733332 12.2133 0.706666 12.96 0.68Z" fill="#292929"/>
</svg>
