<svg width="830" height="88" viewBox="0 0 830 88" fill="none" xmlns="http://www.w3.org/2000/svg">
<path d="M0 0H830V88H0V0Z" fill="#222222"/>
<path d="M367.888 30.016V30.976C366.8 31.008 365.968 31.136 365.392 31.36C364.848 31.552 364.48 31.936 364.288 32.512C364.096 33.056 364 33.92 364 35.104V59.296C364 60.32 364.08 61.104 364.24 61.648C364.432 62.16 364.768 62.496 365.248 62.656C365.728 62.816 366.416 62.896 367.312 62.896H370.048C371.296 62.896 372.384 62.672 373.312 62.224C374.272 61.776 375.104 61.12 375.808 60.256C376.512 59.392 377.088 58.336 377.536 57.088C377.984 55.808 378.304 54.368 378.496 52.768H379.6C379.504 53.824 379.456 55.2 379.456 56.896C379.456 57.6 379.472 58.608 379.504 59.92C379.568 61.232 379.664 62.592 379.792 64C378.16 63.936 376.32 63.904 374.272 63.904C372.224 63.872 370.4 63.856 368.8 63.856C368.032 63.856 367.056 63.856 365.872 63.856C364.688 63.856 363.392 63.872 361.984 63.904C360.608 63.904 359.2 63.92 357.76 63.952C356.352 63.952 355.008 63.968 353.728 64V63.04C354.784 62.976 355.568 62.848 356.08 62.656C356.624 62.464 356.976 62.08 357.136 61.504C357.328 60.928 357.424 60.064 357.424 58.912V35.104C357.424 33.92 357.328 33.056 357.136 32.512C356.976 31.936 356.624 31.552 356.08 31.36C355.568 31.136 354.784 31.008 353.728 30.976V30.016C354.528 30.048 355.552 30.08 356.8 30.112C358.048 30.144 359.392 30.16 360.832 30.16C362.144 30.16 363.44 30.144 364.72 30.112C366 30.08 367.056 30.048 367.888 30.016Z" fill="white"/>
<path d="M388.842 64.336C387.466 64.336 386.298 64.08 385.338 63.568C384.378 63.024 383.658 62.304 383.178 61.408C382.698 60.48 382.458 59.456 382.458 58.336C382.458 56.96 382.778 55.84 383.418 54.976C384.058 54.08 384.874 53.376 385.866 52.864C386.89 52.32 387.962 51.872 389.082 51.52C390.202 51.136 391.258 50.784 392.25 50.464C393.242 50.112 394.058 49.712 394.698 49.264C395.338 48.816 395.658 48.224 395.658 47.488V43.984C395.658 42.96 395.498 42.128 395.178 41.488C394.89 40.816 394.442 40.32 393.834 40C393.258 39.648 392.522 39.472 391.626 39.472C390.954 39.472 390.25 39.568 389.514 39.76C388.778 39.952 388.17 40.32 387.69 40.864C388.522 41.088 389.162 41.504 389.61 42.112C390.09 42.72 390.33 43.456 390.33 44.32C390.33 45.312 389.994 46.096 389.322 46.672C388.682 47.216 387.866 47.488 386.874 47.488C385.818 47.488 385.018 47.152 384.474 46.48C383.93 45.808 383.658 45.024 383.658 44.128C383.658 43.232 383.882 42.496 384.33 41.92C384.778 41.312 385.402 40.768 386.202 40.288C387.002 39.744 388.026 39.312 389.274 38.992C390.522 38.672 391.882 38.512 393.354 38.512C394.762 38.512 396.01 38.672 397.098 38.992C398.186 39.28 399.114 39.808 399.882 40.576C400.65 41.312 401.146 42.224 401.37 43.312C401.594 44.4 401.706 45.728 401.706 47.296V60.448C401.706 61.248 401.802 61.824 401.994 62.176C402.186 62.496 402.49 62.656 402.906 62.656C403.226 62.656 403.53 62.576 403.818 62.416C404.106 62.256 404.426 62.032 404.778 61.744L405.306 62.56C404.602 63.104 403.866 63.536 403.098 63.856C402.33 64.176 401.402 64.336 400.314 64.336C399.194 64.336 398.298 64.176 397.626 63.856C396.986 63.536 396.506 63.072 396.186 62.464C395.898 61.856 395.738 61.136 395.706 60.304C394.938 61.584 393.994 62.576 392.874 63.28C391.754 63.984 390.41 64.336 388.842 64.336ZM391.722 61.648C392.49 61.648 393.194 61.44 393.834 61.024C394.506 60.608 395.114 59.984 395.658 59.152V49.456C395.338 49.936 394.874 50.368 394.266 50.752C393.69 51.136 393.066 51.52 392.394 51.904C391.722 52.288 391.082 52.736 390.474 53.248C389.898 53.728 389.402 54.336 388.986 55.072C388.602 55.776 388.41 56.688 388.41 57.808C388.41 59.056 388.714 60.016 389.322 60.688C389.93 61.328 390.73 61.648 391.722 61.648Z" fill="white"/>
<path d="M422.621 38.512C423.613 38.512 424.429 38.72 425.069 39.136C425.741 39.552 426.237 40.08 426.557 40.72C426.877 41.36 427.038 42.032 427.038 42.736C427.038 43.792 426.718 44.672 426.078 45.376C425.47 46.08 424.653 46.432 423.629 46.432C422.669 46.432 421.885 46.176 421.277 45.664C420.669 45.152 420.366 44.448 420.366 43.552C420.366 42.752 420.557 42.08 420.941 41.536C421.357 40.992 421.821 40.56 422.333 40.24C421.981 40.048 421.582 39.984 421.134 40.048C420.366 40.112 419.662 40.384 419.022 40.864C418.382 41.344 417.837 41.936 417.389 42.64C416.941 43.344 416.589 44.096 416.333 44.896C416.109 45.696 415.997 46.464 415.997 47.2V59.056C415.997 60.624 416.398 61.68 417.198 62.224C417.998 62.736 419.166 62.992 420.702 62.992V64C419.966 63.968 418.894 63.936 417.486 63.904C416.11 63.84 414.669 63.808 413.165 63.808C411.917 63.808 410.67 63.84 409.422 63.904C408.206 63.936 407.293 63.968 406.685 64V62.992C407.869 62.992 408.701 62.752 409.181 62.272C409.693 61.792 409.949 60.88 409.949 59.536V44.416C409.949 42.976 409.709 41.92 409.229 41.248C408.781 40.544 407.933 40.192 406.685 40.192V39.184C407.709 39.28 408.701 39.328 409.661 39.328C410.845 39.328 411.966 39.28 413.022 39.184C414.11 39.056 415.101 38.88 415.997 38.656V43.648C416.381 42.752 416.878 41.92 417.486 41.152C418.126 40.384 418.877 39.76 419.741 39.28C420.637 38.768 421.597 38.512 422.621 38.512Z" fill="white"/>
<path d="M437.837 73.024C435.949 73.024 434.237 72.848 432.701 72.496C431.165 72.144 429.949 71.616 429.053 70.912C428.157 70.24 427.709 69.376 427.709 68.32C427.709 67.296 428.157 66.384 429.053 65.584C429.949 64.784 431.261 64.176 432.989 63.76L433.325 64.528C432.717 64.88 432.253 65.36 431.933 65.968C431.613 66.576 431.453 67.216 431.453 67.888C431.453 69.264 432.077 70.32 433.325 71.056C434.605 71.824 436.301 72.208 438.413 72.208C439.853 72.208 441.181 72.016 442.397 71.632C443.613 71.248 444.589 70.656 445.325 69.856C446.061 69.056 446.429 68.064 446.429 66.88C446.429 65.888 446.061 65.056 445.325 64.384C444.621 63.712 443.197 63.376 441.053 63.376H437.885C436.701 63.376 435.613 63.248 434.621 62.992C433.661 62.736 432.893 62.32 432.317 61.744C431.741 61.168 431.453 60.368 431.453 59.344C431.453 58.096 431.965 56.976 432.989 55.984C434.013 54.96 435.613 53.968 437.789 53.008L438.317 53.44C437.517 53.856 436.797 54.304 436.157 54.784C435.549 55.264 435.245 55.872 435.245 56.608C435.245 57.632 435.949 58.144 437.357 58.144H442.781C444.445 58.144 445.917 58.352 447.197 58.768C448.509 59.184 449.549 59.84 450.317 60.736C451.085 61.632 451.469 62.816 451.469 64.288C451.469 65.824 450.973 67.248 449.981 68.56C448.989 69.904 447.485 70.976 445.469 71.776C443.485 72.608 440.941 73.024 437.837 73.024ZM438.269 53.776C436.541 53.776 434.973 53.52 433.565 53.008C432.189 52.464 431.101 51.632 430.301 50.512C429.501 49.36 429.101 47.904 429.101 46.144C429.101 44.384 429.501 42.944 430.301 41.824C431.101 40.704 432.189 39.872 433.565 39.328C434.973 38.784 436.541 38.512 438.269 38.512C440.029 38.512 441.597 38.784 442.973 39.328C444.349 39.872 445.437 40.704 446.237 41.824C447.037 42.944 447.437 44.384 447.437 46.144C447.437 47.904 447.037 49.36 446.237 50.512C445.437 51.632 444.349 52.464 442.973 53.008C441.597 53.52 440.029 53.776 438.269 53.776ZM438.269 52.912C439.229 52.912 439.981 52.432 440.525 51.472C441.101 50.48 441.389 48.704 441.389 46.144C441.389 43.584 441.101 41.824 440.525 40.864C439.981 39.872 439.229 39.376 438.269 39.376C437.309 39.376 436.541 39.872 435.965 40.864C435.421 41.824 435.149 43.584 435.149 46.144C435.149 48.704 435.421 50.48 435.965 51.472C436.541 52.432 437.309 52.912 438.269 52.912ZM445.517 42.592L444.605 42.256C445.085 41.072 445.869 40.08 446.957 39.28C448.045 38.448 449.197 38.032 450.413 38.032C451.341 38.032 452.061 38.288 452.573 38.8C453.117 39.312 453.389 40.032 453.389 40.96C453.389 41.92 453.133 42.624 452.621 43.072C452.109 43.52 451.549 43.744 450.941 43.744C450.397 43.744 449.901 43.568 449.453 43.216C449.005 42.832 448.749 42.256 448.685 41.488C448.621 40.688 448.877 39.696 449.453 38.512L449.933 38.704C448.685 39.184 447.757 39.712 447.149 40.288C446.541 40.864 445.997 41.632 445.517 42.592Z" fill="white"/>
<path d="M466.313 38.512C469.129 38.512 471.337 39.36 472.937 41.056C474.537 42.752 475.337 45.456 475.337 49.168H459.161L459.113 48.256H469.769C469.833 46.688 469.737 45.248 469.481 43.936C469.225 42.592 468.809 41.52 468.233 40.72C467.689 39.92 466.969 39.52 466.073 39.52C464.857 39.52 463.801 40.24 462.905 41.68C462.009 43.088 461.449 45.408 461.225 48.64L461.417 48.928C461.353 49.344 461.305 49.792 461.273 50.272C461.273 50.752 461.273 51.232 461.273 51.712C461.273 53.92 461.593 55.744 462.233 57.184C462.873 58.624 463.705 59.68 464.729 60.352C465.753 61.024 466.809 61.36 467.897 61.36C468.633 61.36 469.385 61.248 470.153 61.024C470.921 60.8 471.673 60.384 472.409 59.776C473.145 59.168 473.817 58.304 474.425 57.184L475.337 57.568C474.985 58.688 474.393 59.808 473.561 60.928C472.761 62.016 471.721 62.912 470.441 63.616C469.161 64.32 467.657 64.672 465.929 64.672C463.753 64.672 461.833 64.192 460.169 63.232C458.505 62.272 457.209 60.848 456.281 58.96C455.353 57.04 454.889 54.704 454.889 51.952C454.889 49.04 455.369 46.592 456.329 44.608C457.321 42.624 458.681 41.12 460.409 40.096C462.137 39.04 464.105 38.512 466.313 38.512Z" fill="white"/>
</svg>
